<svg width="730" height="38" viewBox="0 0 730 38" fill="none" xmlns="http://www.w3.org/2000/svg">
<path d="M18.6428 37.75C8.24277 37.75 0.392774 29.6 0.392774 19C0.392774 8.4 8.24277 0.349998 18.6428 0.349998C29.0428 0.349998 36.8928 8.4 36.8928 19C36.8928 29.6 29.0428 37.75 18.6428 37.75ZM18.6428 32.8C26.2428 32.8 31.1928 26.7 31.1928 19C31.1928 11.3 26.2428 5.3 18.6428 5.3C11.0428 5.3 6.09277 11.3 6.09277 19C6.09277 26.7 11.0428 32.8 18.6428 32.8ZM70.2307 1.1V24.1C70.2307 32.35 64.9307 37.75 56.3307 37.75C47.7307 37.75 42.4807 32.35 42.4807 24.1V1.1H47.9807V24.25C47.9807 29.45 51.0307 32.8 56.3307 32.8C61.6807 32.8 64.7307 29.45 64.7307 24.25V1.1H70.2307ZM92.1334 37H86.6334V6.05H74.9334V1.1H103.833V6.05H92.1334V37ZM114.194 37H108.694V1.1H130.494V5.9H114.194V17.6H128.094V22.4H114.194V37ZM141.391 37H135.891V1.1H141.391V37ZM163.422 37H157.922V6.05H146.222V1.1H175.122V6.05H163.422V37ZM195.932 37H190.432V1.1H195.932V37ZM227.713 37L208.813 8.95V37H203.713V1.1H209.713L228.163 28.4V1.1H233.263V37H227.713ZM267.268 26.5C267.268 32.75 262.268 37.5 253.568 37.5C244.918 37.5 239.668 32.75 239.218 25.6H244.818C245.068 30.15 247.968 33.1 253.468 33.1C258.018 33.1 261.418 30.95 261.418 27.25C261.418 24.25 259.468 22.75 255.318 21.85L250.118 20.85C245.068 19.85 240.468 17.3 240.468 11.2C240.468 5.15 245.768 0.599998 253.218 0.599998C260.668 0.599998 266.318 5.15 266.768 12.3H261.168C260.868 8 257.768 5 253.268 5C248.618 5 246.068 7.75 246.068 10.85C246.068 14.25 249.018 15.45 252.368 16.15L257.668 17.2C263.818 18.45 267.268 21.15 267.268 26.5ZM286.085 24.5H279.135V37H273.635V1.1H286.085C294.135 1.1 299.335 5.2 299.335 12.7C299.335 20.25 294.135 24.5 286.085 24.5ZM286.035 5.75H279.135V19.85H286.035C290.885 19.85 293.835 17.2 293.835 12.75C293.835 8.3 290.885 5.75 286.035 5.75ZM310.337 37H304.837V1.1H310.337V37ZM323.618 37H318.118V1.1H331.518C339.768 1.1 344.718 5.15 344.718 12.3C344.718 17.45 341.468 21.4 336.018 22.7L345.768 37H339.168L330.218 23.5H323.618V37ZM323.618 5.7V18.9H331.168C336.268 18.9 339.168 16.65 339.168 12.3C339.168 8 336.268 5.7 331.168 5.7H323.618ZM375.288 37L372.038 28.1H356.538L353.238 37H347.688L361.438 1.1H367.488L381.138 37H375.288ZM364.338 7.1L358.188 23.65H370.388L364.338 7.1ZM397.065 37H391.565V6.05H379.865V1.1H408.765V6.05H397.065V37ZM419.126 37H413.626V1.1H419.126V37ZM443.057 37.75C432.657 37.75 424.807 29.6 424.807 19C424.807 8.4 432.657 0.349998 443.057 0.349998C453.457 0.349998 461.307 8.4 461.307 19C461.307 29.6 453.457 37.75 443.057 37.75ZM443.057 32.8C450.657 32.8 455.607 26.7 455.607 19C455.607 11.3 450.657 5.3 443.057 5.3C435.457 5.3 430.507 11.3 430.507 19C430.507 26.7 435.457 32.8 443.057 32.8ZM490.995 37L472.095 8.95V37H466.995V1.1H472.995L491.445 28.4V1.1H496.545V37H490.995ZM520.249 37H514.749V1.1H536.549V5.9H520.249V17.6H534.149V22.4H520.249V37ZM558.096 37.75C547.696 37.75 539.846 29.6 539.846 19C539.846 8.4 547.696 0.349998 558.096 0.349998C568.496 0.349998 576.346 8.4 576.346 19C576.346 29.6 568.496 37.75 558.096 37.75ZM558.096 32.8C565.696 32.8 570.646 26.7 570.646 19C570.646 11.3 565.696 5.3 558.096 5.3C550.496 5.3 545.546 11.3 545.546 19C545.546 26.7 550.496 32.8 558.096 32.8ZM587.534 37H582.034V1.1H595.434C603.684 1.1 608.634 5.15 608.634 12.3C608.634 17.45 605.384 21.4 599.934 22.7L609.684 37H603.084L594.134 23.5H587.534V37ZM587.534 5.7V18.9H595.084C600.184 18.9 603.084 16.65 603.084 12.3C603.084 8 600.184 5.7 595.084 5.7H587.534ZM641.842 37L630.492 9.55V37H625.442V1.1H632.192L644.242 30.25L656.242 1.1H663.042V37H657.942V9.5L646.542 37H641.842ZM693.553 32.2V37H670.803V1.1H693.203V5.9H676.303V16.1H691.703V20.9H676.303V32.2H693.553ZM724.003 37L705.103 8.95V37H700.003V1.1H706.003L724.453 28.4V1.1H729.553V37H724.003Z" fill="black"/>
</svg>
