<svg width="434" height="38" viewBox="0 0 434 38" fill="none" xmlns="http://www.w3.org/2000/svg">
<path d="M29.0104 26.5C29.0104 32.75 24.0104 37.5 15.3104 37.5C6.66035 37.5 1.41035 32.75 0.960352 25.6H6.56035C6.81035 30.15 9.71035 33.1 15.2104 33.1C19.7604 33.1 23.1604 30.95 23.1604 27.25C23.1604 24.25 21.2104 22.75 17.0604 21.85L11.8604 20.85C6.81035 19.85 2.21035 17.3 2.21035 11.2C2.21035 5.15 7.51035 0.599998 14.9604 0.599998C22.4104 0.599998 28.0604 5.15 28.5104 12.3H22.9104C22.6104 8 19.5104 5 15.0104 5C10.3604 5 7.81035 7.75 7.81035 10.85C7.81035 14.25 10.7604 15.45 14.1104 16.15L19.4104 17.2C25.5604 18.45 29.0104 21.15 29.0104 26.5ZM58.1275 32.2V37H35.3775V1.1H57.7775V5.9H40.8775V16.1H56.2775V20.9H40.8775V32.2H58.1275ZM70.0768 37H64.5768V1.1H77.9768C86.2268 1.1 91.1768 5.15 91.1768 12.3C91.1768 17.45 87.9268 21.4 82.4768 22.7L92.2268 37H85.6268L76.6768 23.5H70.0768V37ZM70.0768 5.7V18.9H77.6268C82.7268 18.9 85.6268 16.65 85.6268 12.3C85.6268 8 82.7268 5.7 77.6268 5.7H70.0768ZM126.103 1.1L112.903 37H106.853L93.6533 1.1H99.5533L110.003 30.6L120.603 1.1H126.103ZM136.288 37H130.788V1.1H136.288V37ZM159.719 37.75C149.719 37.75 141.969 29.6 141.969 19C141.969 8.45 149.719 0.349998 159.719 0.349998C168.719 0.349998 175.919 6.35 177.269 15.2H171.419C170.419 9.4 165.719 5.3 159.769 5.3C152.669 5.3 147.669 11.05 147.669 19C147.669 27.05 152.669 32.8 159.769 32.8C165.719 32.8 170.419 28.65 171.419 22.85H177.269C175.919 31.75 168.719 37.75 159.719 37.75ZM205.735 32.2V37H182.985V1.1H205.385V5.9H188.485V16.1H203.885V20.9H188.485V32.2H205.735ZM238.434 26.5C238.434 32.75 233.434 37.5 224.734 37.5C216.084 37.5 210.834 32.75 210.384 25.6H215.984C216.234 30.15 219.134 33.1 224.634 33.1C229.184 33.1 232.584 30.95 232.584 27.25C232.584 24.25 230.634 22.75 226.484 21.85L221.284 20.85C216.234 19.85 211.634 17.3 211.634 11.2C211.634 5.15 216.934 0.599998 224.384 0.599998C231.834 0.599998 237.484 5.15 237.934 12.3H232.334C232.034 8 228.934 5 224.434 5C219.784 5 217.234 7.75 217.234 10.85C217.234 14.25 220.184 15.45 223.534 16.15L228.834 17.2C234.984 18.45 238.434 21.15 238.434 26.5ZM266.101 17.75L274.101 26.75C274.701 25 275.051 22.85 275.151 20.55H279.801C279.701 23.9 278.701 27.4 277.101 30.1L283.251 37H276.951L274.101 33.8C271.401 36.25 268.251 37.5 264.951 37.5C257.751 37.5 253.151 33.3 253.151 26.75C253.151 22.7 255.751 19.45 259.701 17.55C258.151 15.45 257.401 13.6 257.401 11.2C257.401 6.3 261.551 2.7 267.101 2.7C272.701 2.7 276.601 6.2 276.701 11.35H271.951C271.701 8.4 269.551 6.75 267.101 6.75C264.501 6.75 262.551 8.65 262.551 11.25C262.551 13.5 263.751 15.05 266.101 17.75ZM258.001 26.45C258.001 30 260.351 33.35 265.351 33.35C267.651 33.35 269.851 32.45 271.501 30.9L262.301 20.55C259.751 21.6 258.001 23.7 258.001 26.45ZM324.372 26.5C324.372 32.75 319.372 37.5 310.672 37.5C302.022 37.5 296.772 32.75 296.322 25.6H301.922C302.172 30.15 305.072 33.1 310.572 33.1C315.122 33.1 318.522 30.95 318.522 27.25C318.522 24.25 316.572 22.75 312.422 21.85L307.222 20.85C302.172 19.85 297.572 17.3 297.572 11.2C297.572 5.15 302.872 0.599998 310.322 0.599998C317.772 0.599998 323.422 5.15 323.872 12.3H318.272C317.972 8 314.872 5 310.372 5C305.722 5 303.172 7.75 303.172 10.85C303.172 14.25 306.122 15.45 309.472 16.15L314.772 17.2C320.922 18.45 324.372 21.15 324.372 26.5ZM336.239 37H330.739V1.1H336.239V16.1H354.439V1.1H359.939V37H354.439V20.9H336.239V37ZM383.901 37.75C373.501 37.75 365.651 29.6 365.651 19C365.651 8.4 373.501 0.349998 383.901 0.349998C394.301 0.349998 402.151 8.4 402.151 19C402.151 29.6 394.301 37.75 383.901 37.75ZM383.901 32.8C391.501 32.8 396.451 26.7 396.451 19C396.451 11.3 391.501 5.3 383.901 5.3C376.301 5.3 371.351 11.3 371.351 19C371.351 26.7 376.301 32.8 383.901 32.8ZM420.288 24.5H413.338V37H407.838V1.1H420.288C428.338 1.1 433.538 5.2 433.538 12.7C433.538 20.25 428.338 24.5 420.288 24.5ZM420.238 5.75H413.338V19.85H420.238C425.088 19.85 428.038 17.2 428.038 12.75C428.038 8.3 425.088 5.75 420.238 5.75Z" fill="black"/>
</svg>
