<svg width="330" height="19" viewBox="0 0 330 19" fill="none" xmlns="http://www.w3.org/2000/svg">
<path d="M9.37063 18H5.72263V4.056H0.298625V0.767999H14.8186V4.056H9.37063V18ZM20.6428 18H16.9948V0.767999H20.6428V7.56H28.1068V0.767999H31.7548V18H28.1068V10.704H20.6428V18ZM46.8914 14.832V18H35.2994V0.767999H46.7234V3.936H38.9474V7.56H46.0034V10.704H38.9474V14.832H46.8914ZM66.3211 14.832V18H54.7291V0.767999H66.1531V3.936H58.3771V7.56H65.4331V10.704H58.3771V14.832H66.3211ZM80.2792 18H69.1432V0.767999H72.7912V14.712H80.2792V18ZM94.3758 14.832V18H82.7838V0.767999H94.2078V3.936H86.4318V7.56H93.4878V10.704H86.4318V14.832H94.3758ZM112.03 0.767999L105.79 18H101.806L95.6139 0.767999H99.5499L103.918 13.752L108.382 0.767999H112.03ZM122.757 18L121.461 14.304H114.765L113.445 18H109.773L116.253 0.767999H120.237L126.669 18H122.757ZM118.149 4.752L115.797 11.4H120.453L118.149 4.752ZM134.996 18H131.348V4.056H125.924V0.767999H140.444V4.056H134.996V18ZM154.212 14.832V18H142.62V0.767999H154.044V3.936H146.268V7.56H153.324V10.704H146.268V14.832H154.212ZM163.154 18H157.034V0.767999H163.154C168.626 0.767999 171.938 4.272 171.938 9.288C171.938 14.304 168.506 18 163.154 18ZM160.682 3.912V14.856H162.962C166.394 14.856 168.194 12.864 168.194 9.288C168.194 5.856 166.394 3.912 162.962 3.912H160.682ZM187.359 18.36C182.367 18.36 178.479 14.64 178.479 9.312C178.479 4.224 182.175 0.407999 187.215 0.407999C191.583 0.407999 194.703 3 195.831 6.744H191.535C191.007 4.992 189.423 3.672 187.119 3.672C184.335 3.672 182.223 5.712 182.223 9.408C182.223 12.72 184.071 15.264 187.527 15.264C190.071 15.264 191.679 13.752 192.159 11.616H187.167V8.712H196.047C196.263 14.328 192.855 18.36 187.359 18.36ZM210.181 14.832V18H198.589V0.767999H210.013V3.936H202.237V7.56H209.293V10.704H202.237V14.832H210.181ZM224.235 18L216.339 5.976V18H213.003V0.767999H216.939L224.451 12.192V0.767999H227.811V18H224.235ZM239.058 18H235.41V4.056H229.986V0.767999H244.506V4.056H239.058V18ZM257.818 18H246.682V0.767999H250.33V14.712H257.818V18ZM271.915 14.832V18H260.323V0.767999H271.747V3.936H263.971V7.56H271.027V10.704H263.971V14.832H271.915ZM282.561 18L278.049 6.552V18H274.737V0.767999H279.105L284.097 13.536L289.113 0.767999H293.481V18H290.169V6.456L285.609 18H282.561ZM308.523 18L307.227 14.304H300.531L299.211 18H295.539L302.019 0.767999H306.003L312.435 18H308.523ZM303.915 4.752L301.563 11.4H306.219L303.915 4.752ZM325.766 18L317.87 5.976V18H314.534V0.767999H318.47L325.982 12.192V0.767999H329.342V18H325.766Z" fill="black"/>
</svg>
