<svg width="1448" height="148" viewBox="0 0 1448 148" fill="none" xmlns="http://www.w3.org/2000/svg">
<path d="M65.8713 117H35.6313V29.48H0.43125V2.11999H101.071V29.48H65.8713V117ZM144.94 117H114.7V2.11999H144.94V117ZM219.356 117L194.716 50.76V117H167.356V2.11999H203.036L231.996 80.04L260.796 2.11999H296.476V117H269.116V49.96L244.316 117H219.356ZM400.199 90.76V117H318.919V2.11999H399.079V28.36H349.159V44.84H394.439V71.08H349.159V90.76H400.199ZM496.073 117H417.513V2.11999H447.753V89.64H496.073V117ZM593.324 90.76V117H512.044V2.11999H592.204V28.36H542.284V44.84H587.564V71.08H542.284V90.76H593.324ZM702.638 79.4C702.638 103.08 683.758 118.6 653.838 118.6C623.918 118.6 604.717 102.76 602.638 77.32H633.198C633.518 88.2 640.718 95.08 653.198 95.08C663.598 95.08 670.478 91.08 670.478 83.88C670.478 78.92 665.518 75.24 658.798 73.96L637.838 69.96C619.438 66.44 607.278 55.72 607.278 37.16C607.278 15.72 626.158 0.679991 651.918 0.679991C679.278 0.679991 698.958 16.36 700.718 41.16H670.158C669.358 30.76 662.318 24.04 652.238 24.04C643.278 24.04 637.838 28.84 637.838 35.08C637.838 40.2 642.958 43.24 649.038 44.36L671.278 48.68C691.758 52.68 702.638 62.76 702.638 79.4ZM810.138 79.4C810.138 103.08 791.258 118.6 761.338 118.6C731.418 118.6 712.217 102.76 710.138 77.32H740.698C741.018 88.2 748.218 95.08 760.698 95.08C771.098 95.08 777.978 91.08 777.978 83.88C777.978 78.92 773.018 75.24 766.298 73.96L745.338 69.96C726.938 66.44 714.778 55.72 714.778 37.16C714.778 15.72 733.658 0.679991 759.418 0.679991C786.778 0.679991 806.458 16.36 808.218 41.16H777.658C776.858 30.76 769.818 24.04 759.738 24.04C750.778 24.04 745.338 28.84 745.338 35.08C745.338 40.2 750.458 43.24 756.538 44.36L778.778 48.68C799.258 52.68 810.138 62.76 810.138 79.4ZM890.435 147.88H862.755V2.11999H890.435V147.88ZM1042.01 79.4C1042.01 103.08 1023.13 118.6 993.213 118.6C963.293 118.6 944.092 102.76 942.013 77.32H972.573C972.893 88.2 980.093 95.08 992.573 95.08C1002.97 95.08 1009.85 91.08 1009.85 83.88C1009.85 78.92 1004.89 75.24 998.173 73.96L977.213 69.96C958.812 66.44 946.653 55.72 946.653 37.16C946.653 15.72 965.533 0.679991 991.293 0.679991C1018.65 0.679991 1038.33 16.36 1040.09 41.16H1009.53C1008.73 30.76 1001.69 24.04 991.613 24.04C982.653 24.04 977.213 28.84 977.213 35.08C977.213 40.2 982.333 43.24 988.413 44.36L1010.65 48.68C1031.13 52.68 1042.01 62.76 1042.01 79.4ZM1111.03 117H1080.79V29.48H1045.59V2.11999H1146.23V29.48H1111.03V117ZM1219.7 73.8V117H1189.46V73.8L1149.3 2.11999H1181.94L1205.62 46.12L1229.78 2.11999H1260.18L1219.7 73.8ZM1350.6 117H1272.04V2.11999H1302.28V89.64H1350.6V117ZM1447.86 90.76V117H1366.58V2.11999H1446.74V28.36H1396.82V44.84H1442.1V71.08H1396.82V90.76H1447.86Z" fill="black"/>
</svg>
