<svg width="32" height="18" viewBox="0 0 32 18" fill="none" xmlns="http://www.w3.org/2000/svg">
<path d="M11.592 14.424V17.592H-9.53674e-07V0.359979H11.424V3.52798H3.648V7.15198H10.704V10.296H3.648V14.424H11.592ZM22.2861 17.952C17.2941 17.952 13.4061 14.232 13.4061 8.90398C13.4061 3.81598 17.1021 -2.09808e-05 22.1421 -2.09808e-05C26.5101 -2.09808e-05 29.6301 2.59198 30.7581 6.33598H26.4621C25.9341 4.58398 24.3501 3.26398 22.0461 3.26398C19.2621 3.26398 17.1501 5.30398 17.1501 8.99998C17.1501 12.312 18.9981 14.856 22.4541 14.856C24.9981 14.856 26.6061 13.344 27.0861 11.208H22.0941V8.30398H30.9741C31.1901 13.92 27.7821 17.952 22.2861 17.952Z" fill="black"/>
</svg>
