<svg width="32" height="32" viewBox="0 0 32 32" fill="none" xmlns="http://www.w3.org/2000/svg">
<g opacity="0.3">
<rect width="32" height="32" fill="black"/>
<path d="M12.56 19.72V23H2.4V8.64H12.42V11.92H6.18V13.98H11.84V17.26H6.18V19.72H12.56ZM21.3442 23.3C17.1642 23.3 13.8842 20.22 13.8842 15.74C13.8842 11.5 17.0042 8.34 21.2242 8.34C24.8242 8.34 27.4842 10.42 28.4842 13.64H24.0042C23.6442 12.54 22.5842 11.72 21.1242 11.72C19.2642 11.72 17.7642 13.02 17.7642 15.84C17.7642 18.24 18.9442 20.1 21.5442 20.1C23.1842 20.1 24.2042 19.18 24.6242 17.98H21.1642V15H28.6642C28.9642 19.74 26.1042 23.3 21.3442 23.3Z" fill="white"/>
</g>
</svg>
